<svg  width="1600pt" height="1200" viewBox="0 0 1600 900" xmlns="http://www.w3.org/2000/svg"><defs>
          <filter id="shadow" x="-50%" y="-50%" width="200%" height="200%">
            <feDropShadow dx="2" dy="2" stdDeviation="1" flood-color="rgba(0, 0, 0, 0.69)" />
          </filter>
        </defs><g fill="#cc3332" filter="url(#shadow)"><path d="M1002.31 191c-.88-16.2 9.82-33.01 25.86-37.17 16.69-3.43 33.75 7.58 40.69 22.53.35.08 1.04.22 1.39.29 4.03-9.65 12.32-17.99 22.78-20.17 6.2-.28 12.79-.99 18.61 1.69 6.89 2.51 12.36 7.53 17.39 12.7 5.51-9.33 16.04-15.5 26.93-15.26 11.97.79 23.26 7.58 29.94 17.49 2.42 3.43 4.69 7.21 4.99 11.51 2.24-6.51 7.05-12.49 13.77-14.67 14.74-4.24 31.13 11.04 27.7 26.08-3.01 10.61-14.86 16.48-25.33 15.53-7.04-.52-13.01-5.2-16.12-11.4-1.67 9-9.21 15.62-16.92 19.81-12.73 6.75-30 7.17-41.32-2.6-1.9-1.29-3.05-4.04-5.58-4.03-1.31 2.08-.07 4.49.22 6.69 2.7 11.84.4 24.32-4.19 35.39-5.35 12.16-14.72 23.4-27.53 27.94-7.72 2.95-16.68 2.78-24.12-.9-9.15-4.27-16.01-12.25-20.89-20.9-6.73-11.9-10.23-25.71-9.18-39.39-9.25 1.1-19.23.01-26.94-5.6-8.21-5.6-12.58-15.76-12.15-25.56zM729.01 166.03c13.28-9.71 30.52-13.41 46.7-10.92 11.97 2.07 23.17 7.96 32.04 16.21.82.95 2.19.19 2.74-.67 5.52-6.55 13.72-11.5 22.49-11.21 15.74-.84 29.86 10.69 36.09 24.52 2.02-1.75 2.88-4.36 4.33-6.54 4.37-6.82 11.12-12.29 19.07-14.26 7.75-1.66 16.14-.63 23.05 3.37 9.89 5.33 17.89 14.58 20.6 25.61.92 5.72.68 11.65-.99 17.21 10.38.1 19.69 6.97 24.9 15.61 4.26 6.96 4.78 16.26.34 23.26-7.05 11.43-22.19 16-34.76 12.3-8.11-2.51-14.02-10.2-15.05-18.51-.26-4.2-.35-8.49.69-12.59-10.9 3.65-23.91 2.67-33.15-4.57-4.51-3.4-7.34-8.38-9.5-13.49-.4-.08-1.2-.25-1.6-.34-10.28 15.25-32.23 21.97-49.01 14.02-5.38-2.48-9.58-6.92-12.77-11.82-10.94 4.21-22.5 6.83-34.2 7.46-5.63 1.1-11.4.76-17.09.7-11.24-1.26-23.24-3.54-31.91-11.38-7.34-6.57-9.33-17.56-6.49-26.73 2.34-7.09 7.49-12.93 13.48-17.24zM555.23 162.93c3.14-.79 6.54-.4 9.5.94 8.78 3.64 15.26 11.58 18.56 20.34.51 3 .7 6.33-.81 9.1-3.19 7.2-9.94 12.02-16.84 15.34-3.84 1.75-8.74 2.95-12.51.4-2.78-1.86-3.95-5.15-5.39-8-4.16-8.43-4.51-18.6-1.1-27.34 1.53-4.38 4-9.04 8.59-10.78zM972.51 166.81c11.51-2.94 23.64 6.84 25.01 18.24.97 11.04-10.29 19.33-20.51 19.36-7.4.52-15.08-4.16-17.25-11.4-.82-3.92-.77-8.01-.12-11.96 1.59-6.46 6.43-12.21 12.87-14.24zM567.04 232.96c5.85-7.31 14.24-13.48 23.97-13.47 10.46-.77 20.5 4.52 27.65 11.85 6.82 6.63 11.65 15.99 11 25.68.29 5.92-2.47 11.43-5.63 16.26 10.76 3.47 19.92 11.35 25.14 21.34 4.57 8.67 4.73 19.77-.33 28.26-2.86 5.01-7.31 8.87-12.01 12.09-1.12.61-.3 2.05.62 2.4 6.45 4.4 10.85 12.04 10.21 19.97 10.23-.31 20.01 4.77 26.93 12.09 6.84 6.98 11.71 16.64 10.82 26.62-.61 7.68-4.7 14.87-10.44 19.92-8.43 7.3-19.8 11.15-30.94 10.33-7.47-.69-14.97-3.6-20.13-9.21-7.75-7.62-9.73-19.4-8.02-29.77.83-4.3 2.65-8.29 3.99-12.44-7.02-1.14-13.05-6.68-14.48-13.68-2.46-6.98.81-14.13 3.7-20.4-9.73-.76-18.8-7.05-23.11-15.78-3.26-6.67-3.96-14.23-3.37-21.55-5.89 5.09-12.77 8.9-20.12 11.42.18 4.49.93 9.28-1.04 13.51-3.96 10.19-14.09 16.24-23.91 19.81-1.25.67-3.83.52-3.22 2.58 11.39 9.59 20.57 22.71 22.81 37.69 2.13 13.77-3.2 27.99-12.7 37.96-10.61 10.85-25.19 16.96-40.03 19.2 5.46 7.47 6.64 17.62 3.88 26.34-5.48 14.58-21.27 22.95-36.28 23.47-11.07-.04-22.84-5.15-28.19-15.29-9.52-17.49-1.93-41.2 15.07-51.1-5.5-6.92-9.23-15.27-10.34-24.05-.43-6.61-.44-13.27.12-19.87 3.52-19.4 15.98-38.4 35.2-45.09-5.08-5.34-8.55-12.58-8.38-20.04-.52-9.79 4.4-19.38 11.83-25.59 5.13-4.69 11.76-7.27 18.34-9.18-.39-7.92-1.07-16.11 1.44-23.77 3.51-12.22 11.59-23.42 22.97-29.4 11.49-5.87 25.66-4.98 36.98.89zM742.27 242.4c4.39-2.81 9.54-4.31 14.69-4.82 13.73-.11 26.65 8.25 33.62 19.87 4.75 7.38 6.42 16.79 3.79 25.23-3.71 11.3-14.13 19.67-25.55 22.27 8.03 2.29 15.95 6.36 20.78 13.41 4.91 6.28 7.41 14.8 5.02 22.6-2.75 8.83-10.68 15.31-19.34 17.96 13.12 4.42 23.79 15.97 26.82 29.54 1.53 7.07-.32 14.55-4.12 20.62-4.7 7.16-12.12 12.34-20.23 14.94a9.57 9.57 0 0 0 3.25 2.21c15.66 6.6 28.92 20.01 33.4 36.63 1.74 5.18 1.17 10.75 1.08 16.12-1.54 10.75-7.89 20.54-16.49 27.06-8.89 7.02-19.93 11.06-31.15 12.2-13.66 1.19-28.44-2.82-37.81-13.27-9.78-11.19-13.3-27.34-9.75-41.69 3.2-16.84 14.67-32.6 31.19-38.37-2.71-2.55-6.42-3.69-9.07-6.32-6.67-5.82-10.03-14.84-9.89-23.58-.46-14.92 8.2-30.58 22.47-36.08-5.63-2.07-10.53-6.25-13.01-11.75-5.39-11.41-2.19-25.8 6.56-34.66 1.92-2.06 4.67-3.2 6.27-5.57-9.71-.86-19.66-5.46-24.64-14.19-9.77-16.52-3.67-39.82 12.11-50.36zM919.2 274.53c12.43-1.92 24.66 4.47 32.7 13.63 5.41 6.3 9.41 14.34 8.87 22.84.58 9.84-5.34 19.09-13.27 24.49-11.34 7.98-26.93 10.77-39.72 4.66-10.61-4.82-17.16-16.64-16.5-28.15-.95-16.78 10.74-34.64 27.92-37.47zM1075.87 292.67c7.2-2.62 15.28-1.18 21.85 2.49 4.78 2.32 8.88 6.61 9.85 11.95 1.14 11.58-4.71 23.65-14.63 29.8 3.59 2.98 8.29 5.4 9.39 10.4 1.2 8.08 2.78 16.1 4.71 24.05 1.17 5.08 1.39 11.01-2.56 14.99 7.41 6.81 13.19 16.27 12.86 26.63-.3 8.65-5.54 16.1-11.95 21.51 8.08 7.91 14.14 18.95 13.4 30.53.35 7.79-3.71 15.31-9.4 20.42-12.48 10.52-31.63 12.29-45.8 4.23-8.53-5.06-15.08-14.46-14.46-24.67-.9-11.25 4.37-22.19 12.25-29.99-5.73-5.35-9.42-13.09-9.18-20.99-.81-12.96 5.76-27.08 17.7-32.97-4.15-3.93-7.49-9.15-7.55-15.04-.13-5.83-.61-12.07 2.29-17.39 1.45-3.23 4.18-5.59 6.83-7.83-2.89-2.16-6.22-3.88-8.41-6.85-5.37-6.86-6.65-16.11-5.36-24.52 2.01-8.69 9.98-14.43 18.17-16.75z"/><path d="M804.58 336.55c5.56-5.57 13.62-8.2 21.41-7 11.68 2.2 21.95 11.36 25.17 22.86 1.81-3.19 2.24-6.95 4.17-10.08 2.6-4.34 6.89-7.86 11.97-8.7 12.96-2.07 26.15 11.26 22.91 24.26-4.28 12.89-22.95 18.24-33.09 8.95-3.11-2.74-4.06-6.87-4.11-10.85-.7 5.08-1.46 10.36-4.23 14.79-4.6 7.31-12.56 12.01-20.87 13.81-6.43.32-13.34 1.1-19.19-2.2-8.04-3.88-13.04-12.58-13.27-21.39-.52-8.95 3.05-17.92 9.13-24.45zM893.24 372.48c12.87.08 25.24 12.27 23.95 25.4-2.48 14.41-20.35 21.5-33.07 16.17-6.83-3.12-11.15-10.56-10.74-18.02-.41-11.21 8.11-23.05 19.86-23.55z"/><path d="M902.65 421.29c2.02-5.91 7.93-10.53 14.34-10.02 9.87-.92 18.67 4.78 25.96 10.78 8.89 8.16 17.02 18.54 18.39 30.92-.29 3.23-.85 6.47-1.55 9.65-2.46 7.28-7.87 13.85-15.14 16.66-4.24 1.08-8.96.82-12.86-1.25-7.14-3.55-12.77-9.45-17.79-15.52-6.36-7.93-10.95-17.39-12.56-27.46-.13-4.58-.81-9.47 1.21-13.76zM670.43 430.45c3.86-1.82 8.34-1.11 12.48-.91 9.88 2.64 17.9 11.41 19.53 21.54.5 5.2-1.73 10.39-4.98 14.36-4.73 5.23-11.69 8.16-18.65 8.76-7.51.49-15.57-2.88-19.43-9.57-6.76-11.69-1.32-28.68 11.05-34.18z"/></g><path filter="url(#shadow)" stroke-width="0" fill="#000" d="M326.69 462.29c16.03-4.34 32.79-4.6 49.28-3.76 16.76 1.61 33.53 5.81 48.24 14.23 15.09 8.32 28 21.1 35.16 36.89 2.27 4.67 3.65 9.69 5.15 14.65-2.17 1.24-4.45 2.29-6.82 3.08-11.26 3.71-22.33 7.96-33.54 11.83-4.86 1.61-9.52 3.9-14.59 4.78-2.11-11.62-8.88-22.27-18.76-28.81-11.7-8.39-26.95-9.79-40.87-7.94-10.05 1.28-20.32 6.16-25.3 15.39-3.95 6.35-3.61 14.09-3.04 21.24 1.1 7.58 6.45 13.79 12.8 17.71 9.24 5.77 20.13 7.68 30.48 10.54 18.16 4.18 36.35 8.86 53.45 16.4 13.58 6.04 26.48 14.77 34.82 27.29 6.2 8.91 10.04 19.34 11.53 30.08 2.81 16.3 1.58 33.53-5.08 48.78-7.22 16.33-20.48 29.67-36.25 37.87-15.41 8.48-32.92 12.27-50.29 13.95-9.03.25-18.07.31-27.09-.02-21.14-2.17-42.29-8.35-59.79-20.72-17.19-11.63-29.84-29.71-34.64-49.92 11.99-4.22 24.09-8.14 36.18-12.11 5.96-1.9 11.75-4.4 17.88-5.76 4.03 13.88 13.03 26.81 26.38 33.04 11.9 6.16 25.76 6.38 38.79 4.98 10.62-1.54 22.31-5.63 27.79-15.57 6.66-12.69 4.96-30.94-7.22-39.74-9.46-6.87-21.06-9.64-32.14-12.73-16.21-4.06-32.8-7.09-48.24-13.73-15.31-6.4-29.69-16.16-39.32-29.87-8.39-12.35-12.59-27.44-12.19-42.34-.35-18.95 6.25-38.29 19.38-52.16 12.51-13.98 29.81-23.05 47.86-27.55zM1178 476.04c19.77-12.76 43.64-18.2 67-17.86 21.23-.42 42.89 3.77 61.57 14.15 14.76 7.98 27.61 20.09 34.97 35.3 2.75 5.3 4.45 11.03 6.14 16.74-7.37 3.77-15.48 5.77-23.18 8.76-10.68 3.41-20.96 8.13-31.83 10.84-2.7-16.25-15.26-30.05-30.92-34.81-10.65-3.34-22.2-3.34-33.06-1.1-8.99 2.01-17.66 7.39-21.64 15.96-3.16 5.8-2.85 12.6-2.45 18.99.76 6.34 4.35 12.14 9.36 16.03 7.81 6.36 17.83 8.67 27.32 11.34 10.26 2.95 20.86 4.6 31.05 7.85 18.62 5.54 37.67 11.96 52.66 24.79 16.52 14.23 24.62 36.49 24.17 57.99.71 17.36-4.71 34.93-15.35 48.7-13.07 17.24-33.16 28.01-53.92 32.97-11.77 2.66-23.8 4.4-35.89 4.01-23.36.81-47.01-4.75-67.37-16.33-15.34-8.75-28.39-21.89-36.02-37.9-2.58-5.35-4.78-10.96-5.58-16.87 17.96-5.7 35.68-12.17 53.72-17.59 2.26 6.43 4.64 12.96 8.91 18.38 6.41 8.75 15.82 15.16 26.3 17.96 8.65 2.67 17.83 2.51 26.78 2.01 9.22-.95 18.84-3.36 25.95-9.65 6.17-5.32 8.89-13.71 8.85-21.68.23-8.29-2.46-17.13-8.95-22.62-7.86-6.83-18.04-9.99-27.87-12.75-18.52-5.11-37.79-7.93-55.46-15.79-15.42-6.56-29.84-16.65-39.29-30.68-11.9-18.32-14.1-41.76-8.75-62.65 4.47-18.44 17.22-34.04 32.78-44.49zM539.35 463.44c19.32.18 38.65-.13 57.98.16.07 55.13.01 110.27.03 165.4.11 10.71-.73 21.74 2.84 32.04 4.3 14.35 15.99 26.26 30.38 30.54 10.05 3.73 20.93 3.24 31.45 2.86 13.48-1.48 27.21-6.67 36.16-17.26 8.77-9.85 11.91-23.27 12.29-36.14.04-59.16-.08-118.32.06-177.48 3.24-.06 6.49-.08 9.74-.28-3.55 14.35-.03 30.5 9.75 41.69 9.37 10.45 24.15 14.46 37.81 13.27-.08 42.6 0 85.19-.05 127.79-.14 26.73-11.4 53.44-31.27 71.49-13.37 12.45-30.34 20.53-48.01 24.79-8.98 2.46-18.3 2.99-27.5 4.06-7.05.27-14.17.46-21.17-.6-22.05-1.6-44.11-8.46-62.02-21.64-13.4-9.84-23.88-23.46-30.33-38.75-4.93-11.23-7.26-23.42-8.1-35.6-.27-14.59-.06-29.19-.12-43.78.05-47.52-.11-95.05.08-142.56zM854.55 463.25c1.79-.24 3.58-.47 5.4-.51 18.01-.16 36.04.29 54.05-.23 5.02 6.07 10.65 11.97 17.79 15.52 3.9 2.07 8.62 2.33 12.86 1.25 7.27-2.81 12.68-9.38 15.14-16.66 15.4.25 31.07-.39 46.13 3.45 14.85 3.67 28.8 11.51 39.13 22.88 9.29 10.18 15.21 23.29 16.85 36.97 1.65 13.86.15 28.37-5.88 41.07-5.23 11.32-14.12 20.78-24.62 27.4-3.55 2.33-7.67 3.72-10.96 6.44 9.33 3.58 18.58 7.87 25.96 14.78 9.87 9.01 16.38 21.39 18.92 34.46 1.66 6.84 1.32 13.93 1.33 20.91.13 18.17-7.75 36.23-21.27 48.4-14.32 12.88-33.38 19.53-52.35 21.17-45.35-.2-90.72-.16-136.08-.03 41.02.09 82.04.04 123.06.02 2.75.03 5.5.22 8.23.64-11.07.65-22.16.19-33.24.33-33.46-.05-66.92.1-100.38-.08-.12-92.73.02-185.46-.07-278.18m57.77 47.52c.07 22.61 0 45.23.03 67.85 15.88.02 31.76-.01 47.64.01 5.47-.06 11.06.27 16.37-1.34 9.2-2.22 18.22-7.65 22.3-16.51 3.52-6.7 3.06-14.47 2.76-21.78-.82-9.1-6.17-17.67-14-22.4-9.29-5.87-20.76-6.23-31.42-6.07-14.56.17-29.14-.32-43.68.24m-.04 113.94c.26 23.19-.18 46.39.23 69.57 11.82-.14 23.66-.03 35.49-.07 12.21-.13 24.75.94 36.57-2.84 8.51-2.71 16.03-8.85 19.71-17.06 4.33-9.8 4.28-21.46-.22-31.18-3.56-7.75-10.79-13.35-18.75-16.05-6.23-2-12.8-2.77-19.32-2.57-17.9.16-35.82-.25-53.71.2z"/></svg>